<?xml version="1.0" encoding="iso-8859-1"?>
<!-- Generator: Adobe Illustrator 19.0.0, SVG Export Plug-In . SVG Version: 6.00 Build 0)  -->
<svg version="1.1" id="Layer_1" xmlns="http://www.w3.org/2000/svg" xmlns:xlink="http://www.w3.org/1999/xlink" x="0px" y="0px"
	 viewBox="0 0 512 512" style="enable-background:new 0 0 512 512;" xml:space="preserve">
<g>
	<g>
		<path d="M256,0C144.381,0,53.895,90.488,53.895,202.105c0,9.429,0.655,18.703,1.905,27.788c3.781-0.544,7.64-0.841,11.568-0.841
			c15.982,0,31.355,4.731,44.355,13.265c38.362-8.509,89.351-13.265,144.276-13.265s105.914,4.756,144.276,13.265
			c12.999-8.534,28.373-13.265,44.355-13.265c3.929,0,7.788,0.296,11.568,0.841c1.25-9.085,1.905-18.359,1.905-27.788
			C458.105,90.488,367.62,0,256,0z M181.895,208.842h-0.003c-14.857,0-26.945-12.089-26.945-26.947
			c0.005-14.861,12.094-26.947,26.947-26.947c14.859,0,26.947,12.089,26.947,26.947
			C208.842,196.754,196.754,208.842,181.895,208.842z M330.105,208.842h-0.003c-14.857,0-26.945-12.089-26.945-26.947
			c0.005-14.861,12.094-26.947,26.947-26.947c14.859,0,26.947,12.089,26.947,26.947
			C357.053,196.754,344.964,208.842,330.105,208.842z"/>
	</g>
</g>
<g>
	<g>
		<path d="M485.053,309.895c0-22.323-18.098-40.421-40.421-40.421c-13.808,0-25.991,6.928-33.283,17.492
			c-34.028-10.565-90.91-17.492-155.349-17.492c-64.439,0-121.321,6.927-155.349,17.492c-7.292-10.563-19.475-17.492-33.283-17.492
			c-22.323,0-40.421,18.098-40.421,40.421c0,22.323,18.098,40.421,40.421,40.421H89.6c-8.758,26.947-17.516,53.895-26.274,80.842
			C47.561,475.806,81.04,512,138.105,512c78.596,0,157.192,0,235.79,0c57.064,0,90.544-36.193,74.779-80.842
			c-8.758-26.947-17.516-53.895-26.274-80.842h22.232C466.955,350.316,485.053,332.218,485.053,309.895z M195.368,377.266
			c0-10.302-3.258-20.081-9.419-28.284l32.318-24.28c11.463,15.26,17.523,33.436,17.523,52.564H195.368z M316.632,377.266h-40.421
			c0-19.127,6.059-37.303,17.523-52.564l32.318,24.28C319.888,357.185,316.632,366.964,316.632,377.266z"/>
	</g>
</g>
<g>
</g>
<g>
</g>
<g>
</g>
<g>
</g>
<g>
</g>
<g>
</g>
<g>
</g>
<g>
</g>
<g>
</g>
<g>
</g>
<g>
</g>
<g>
</g>
<g>
</g>
<g>
</g>
<g>
</g>
</svg>
